<?xml version="1.0" encoding="utf-8"?>
<!-- Generator: Adobe Illustrator 25.2.0, SVG Export Plug-In . SVG Version: 6.00 Build 0)  -->
<svg version="1.1" id="katman_1" xmlns="http://www.w3.org/2000/svg" xmlns:xlink="http://www.w3.org/1999/xlink" x="0px" y="0px"
	 viewBox="0 0 560 400" style="enable-background:new 0 0 560 400;" xml:space="preserve">
<style type="text/css">
	.st0{fill-rule:evenodd;clip-rule:evenodd;fill:#015A75;}
	.st1{fill-rule:evenodd;clip-rule:evenodd;fill:#FFFFFF;}
</style>
<g transform="scale(3.35329 6.34921)">
	<g transform="matrix(.57784628566 0 0 .305186175 35.209 21.8866)">
		<path class="st0" d="M-9.93,70.46c-5.61-0.01-10.22-4.62-10.23-10.23V2.77c0.01-5.61,4.62-10.22,10.23-10.23h187.01
			c5.61,0.01,10.22,4.62,10.23,10.23v57.45c-0.01,5.61-4.62,10.22-10.23,10.23H-9.93z"/>
		<path class="st1" d="M-9.93-5.86c-4.73,0.01-8.63,3.9-8.63,8.63v57.45c0.01,4.73,3.9,8.63,8.63,8.63h60.1V-5.86L-9.93-5.86z
			 M131.56,46.14l1.28-1.8c0.92,0.96,2.2,1.5,3.53,1.5c1.3,0,1.93-0.6,1.93-1.23c0-0.81-1.03-1.05-2.25-1.35
			c-1.82-0.41-4.14-0.91-4.14-3.44c0-1.85,1.6-3.38,4.21-3.38c1.77,0,3.23,0.53,4.33,1.55l-1.32,1.73
			c-0.89-0.79-2.04-1.22-3.23-1.21c-1.01,0-1.58,0.45-1.58,1.11c0,0.72,1.02,0.95,2.21,1.23c1.82,0.43,4.16,0.98,4.16,3.5
			c0,2.03-1.45,3.56-4.44,3.56C134.12,47.89,132.58,47.19,131.56,46.14L131.56,46.14z M121.44,46.14l1.28-1.8
			c0.92,0.96,2.2,1.5,3.53,1.5c1.3,0,1.93-0.6,1.93-1.23c0-0.81-1.03-1.05-2.24-1.35c-1.82-0.41-4.14-0.91-4.14-3.44
			c0-1.85,1.6-3.38,4.21-3.38c1.76,0,3.23,0.53,4.33,1.55l-1.31,1.73c-0.89-0.79-2.04-1.22-3.23-1.21c-1.01,0-1.58,0.45-1.58,1.11
			c0,0.72,1.02,0.95,2.21,1.23c1.82,0.43,4.16,0.98,4.16,3.5c0,2.03-1.45,3.56-4.44,3.56C124.01,47.89,122.48,47.19,121.44,46.14
			L121.44,46.14z M84.59,46.14l1.28-1.8c0.92,0.96,2.2,1.5,3.53,1.5c1.3,0,1.93-0.6,1.93-1.23c0-0.81-1.03-1.05-2.25-1.35
			c-1.82-0.41-4.14-0.91-4.14-3.44c0-1.85,1.6-3.38,4.21-3.38c1.77,0,3.23,0.53,4.33,1.55l-1.32,1.73
			c-0.89-0.79-2.04-1.22-3.23-1.21c-1.01,0-1.58,0.45-1.58,1.11c0,0.72,1.01,0.95,2.21,1.23c1.82,0.43,4.16,0.98,4.16,3.5
			c0,2.03-1.45,3.56-4.44,3.56C87.16,47.89,85.63,47.19,84.59,46.14z M73.01,43.28V36.6h2.42v6.59c0,1.55,0.91,2.61,2.61,2.61
			c1.7,0,2.6-1.07,2.6-2.61V36.6h2.42v6.66c0,2.76-1.63,4.64-5.01,4.64C74.68,47.91,73.01,46.01,73.01,43.28L73.01,43.28z
			 M107.78,47.71l-5.29-7.24v7.24h-2.36V36.6h2.42l5.15,6.96V36.6h2.36v11.1H107.78z M95.45,47.71V36.6h2.36v11.1H95.45z
			 M112.37,47.71V36.6h7.87v2.08h-5.5v2.35h5.38v2.08h-5.38v2.51h5.49v2.08L112.37,47.71z M61.87,47.71V36.6h5.84
			c2.12,0,3.2,1.35,3.2,2.83c0,1.4-0.87,2.33-1.91,2.55c1.18,0.18,2.12,1.33,2.12,2.72c0,1.66-1.11,3-3.23,3L61.87,47.71z
			 M68.71,44.38c0-0.7-0.5-1.3-1.43-1.3h-3.04v2.58h3.04C68.17,45.66,68.71,45.17,68.71,44.38z M68.5,39.84L68.5,39.84
			c0-0.67-0.55-1.21-1.21-1.21c-0.03,0-0.06,0-0.09,0h-2.96v2.42h2.96c0.8,0,1.3-0.5,1.3-1.2L68.5,39.84z M72.84,23.09
			c0-3.41,2.58-5.75,5.91-5.75c1.94-0.05,3.74,1.01,4.64,2.72l-2.03,1c-0.5-0.97-1.5-1.6-2.6-1.62c-2.01,0-3.48,1.55-3.48,3.63
			s1.46,3.63,3.48,3.63c1.1-0.01,2.11-0.63,2.61-1.61l2.02,1.01c-0.8,1.38-2.2,2.72-4.64,2.72C75.43,28.83,72.84,26.51,72.84,23.09
			L72.84,23.09z M84.39,23.09c0-3.41,2.58-5.75,5.91-5.75c1.94-0.05,3.74,1.01,4.64,2.72l-2.03,1c-0.51-0.98-1.51-1.6-2.61-1.62
			c-2.01,0-3.48,1.55-3.48,3.63s1.46,3.63,3.48,3.63c1.1-0.01,2.11-0.63,2.61-1.61l2.03,0.98c-0.8,1.38-2.2,2.72-4.64,2.72
			C86.98,28.83,84.39,26.51,84.39,23.09z M102.75,28.64l-2.18-3.93h-1.73v3.93h-2.36v-11.1h5.19c2.31,0,3.73,1.51,3.73,3.58
			c0,1.96-1.23,3.03-2.42,3.3l2.5,4.24L102.75,28.64z M69.53,28.64l-0.68-1.88h-4.76l-0.7,1.88h-2.7l4.3-11.1h2.96l4.28,11.1H69.53z
			 M153.49,28.64v-11.1h4.38c3.48,0,5.89,2.21,5.89,5.56s-2.42,5.54-5.89,5.54H153.49z M143.67,28.64v-11.1h7.87v2.08h-5.51v2.35
			h5.37v2.08h-5.37v2.51h5.49v2.08L143.67,28.64z M129.19,28.64v-11.1h2.36v11.1H129.19z M117.12,28.64v-11.1h4.38
			c3.48,0,5.89,2.21,5.89,5.56s-2.42,5.54-5.89,5.54H117.12z M107.3,28.64v-11.1h7.87v2.08h-5.51v2.35h5.38v2.08h-5.38v2.51h5.49
			v2.08L107.3,28.64z M136.43,28.64v-9.02h-3.25v-2.08h8.86v2.08h-3.23v9.02H136.43z M161.36,23.1c0-1.96-1.21-3.48-3.48-3.48h-2.01
			v6.94h2.01c2.18,0,3.46-1.58,3.46-3.46L161.36,23.1z M124.99,23.1c0-1.96-1.21-3.48-3.48-3.48h-2.01v6.94h2.01
			c2.18,0,3.46-1.58,3.46-3.46L124.99,23.1z M66.47,19.9l-1.73,4.78h3.46L66.47,19.9z M102.98,21.11c0-0.93-0.71-1.5-1.66-1.5h-2.48
			v3h2.48C102.27,22.61,102.98,22.05,102.98,21.11z"/>
		<path class="st0" d="M4.7,56.73c1.58,0.7,2.35,1.16,2.65,3.12c0.51,3.42-2.64,4.72-5.61,4.72h-6.96V49.65h7.02
			c2.52,0,4.82,1.15,4.82,3.96C6.62,55.01,5.89,56.03,4.7,56.73z M18.64,56.73c1.58,0.7,2.35,1.16,2.65,3.12
			c0.51,3.42-2.64,4.72-5.61,4.72H8.72V49.65h7.02c2.52,0,4.82,1.15,4.82,3.96C20.56,55.01,19.83,56.03,18.64,56.73z M35.23,59.86
			c-0.3-1.96-1.08-2.42-2.65-3.12c1.19-0.7,1.93-1.72,1.93-3.13c0-2.81-2.3-3.96-4.82-3.96h-7.02v14.93h6.96
			C32.59,64.58,35.75,63.28,35.23,59.86L35.23,59.86z M37.17,61v-0.03c0-1.89,1.55-3.44,3.44-3.44c1.89,0,3.44,1.55,3.44,3.43v0.03
			c0,1.89-1.55,3.44-3.44,3.44C38.73,64.44,37.18,62.89,37.17,61z M43.74,60.99v-0.03c-0.01-1.71-1.42-3.12-3.13-3.12
			c-1.72,0-3.13,1.41-3.13,3.13V61c0.01,1.71,1.42,3.12,3.13,3.12C42.33,64.12,43.74,62.71,43.74,60.99z M39.26,59.12h1.58
			c0.38-0.02,0.76,0.12,1.05,0.37c0.19,0.18,0.29,0.43,0.29,0.68v0.02c0,0.57-0.38,0.91-0.91,1.04l1.09,1.42h-0.65l-1.02-1.33h-0.9
			v1.33h-0.52L39.26,59.12z M2.03,61.75h-4.08v-3.4h4.08C5.02,58.35,4.84,61.75,2.03,61.75z M15.97,61.75H11.9v-3.4h4.07
			C18.96,58.35,18.78,61.75,15.97,61.75L15.97,61.75z M25.84,58.35v3.4h4.07c2.81,0,2.99-3.4,0-3.4H25.84z M40.79,60.85
			c0.49,0,0.84-0.23,0.84-0.63V60.2c0-0.37-0.3-0.61-0.81-0.61h-1.04v1.26L40.79,60.85z M4.7,56.73L4.7,56.73L4.7,56.73L4.7,56.73z
			 M18.64,56.73L18.64,56.73L18.64,56.73L18.64,56.73z M-2.05,52.5h3.66c2.28,0,2.36,3.18,0.14,3.18h-3.8L-2.05,52.5z M25.85,52.5
			h3.63c2.28,0,2.36,3.18,0.14,3.18h-3.79L25.85,52.5z M11.91,52.5h3.65c2.28,0,2.36,3.18,0.14,3.18H11.9L11.91,52.5z M1.52,42.97
			h6.79l1.21,4.12h11.1l1.21-4.12h6.79l-0.89-3.03H2.41L1.52,42.97z M9.74,18.56L6.45,23.1c-1.65,2.27-1.14,6.3,1.11,7.92l6.1,4.4
			c1.05,0.76,1.13,1.51,0.63,2.3l0.89,0.66l3.09-4.28c1.91-2.65,1.74-6.24-1.09-8.31l-6.16-4.49c-0.73-0.54-0.81-1.29-0.41-2.12
			L9.74,18.56L9.74,18.56z M15.02-1.48L9.9,5.61c-2.4,3.32-1.53,8.99,1.75,11.41l8.42,6.18c1.71,1.25,1.93,4.45,0.69,6.08l0.71,0.54
			l5.81-8.17c2.61-3.67,2.46-9.1-1.64-12.07l-9.01-6.55c-1.26-0.91-1.89-2.47-0.84-3.96L15.02-1.48z"/>
	</g>
</g>
</svg>
