<?xml version="1.0" encoding="UTF-8"?>
<svg xmlns="http://www.w3.org/2000/svg" version="1.1" viewBox="0 0 841.9 595.3">
  <defs>
    <style>
      .cls-1 {
        fill: #080808;
      }
    </style>
  </defs>
  <!-- Generator: Adobe Illustrator 28.7.1, SVG Export Plug-In . SVG Version: 1.2.0 Build 142)  -->
  <g>
    <g id="katman_1">
      <path class="cls-1" d="M364.1,295.6c0-25.6,16.4-43.5,39.3-43.5s39.3,17.9,39.3,43.5-16.4,43.5-39.3,43.5-39.3-17.9-39.3-43.5ZM427.5,295.6c0-18.3-10-30.2-24.2-30.2s-24.2,11.8-24.2,30.2,10,30.2,24.2,30.2,24.2-11.8,24.2-30.2ZM484.9,339.1c-8,0-13.9-3.2-17.7-7.7v27.6h-14.1v-82.8h14.1v6.6c3.9-4.6,9.7-7.7,17.7-7.7,17.3,0,27.1,14.6,27.1,32.1s-9.9,32.1-27.1,32.1ZM466.8,305.3v3.6c0,11.4,6.6,17.9,15.3,17.9s15.8-8,15.8-19.7-5.5-19.7-15.8-19.7-15.3,6.4-15.3,18ZM550.1,339.1c-17.6,0-30-13-30-32.1s12.2-32.1,29.4-32.1,27.4,13.5,27.4,30.4v4.7h-43.2c1.1,10.6,7.4,17,16.4,17s12.4-3.5,14.3-9.9l12.1,4.6c-4.4,10.8-14.1,17.3-26.4,17.3h0ZM549.5,286.8c-7.3,0-12.9,4.4-15,12.7h28.3c0-6.8-4.4-12.7-13.3-12.7ZM587.5,337.8v-61.7h14.1v6.6c3.5-4.1,9.1-7.7,17-7.7,12.9,0,20.7,8.9,20.7,22.2v40.6h-14.1v-36.5c0-7.6-3-13.2-10.8-13.2s-12.8,4.7-12.8,13.5v36.2h-14.1,0ZM680.7,253.5h17l32,84.3h-15.2l-7.3-19.3h-36.4l-7.1,19.3h-14.9l32-84.3ZM688.9,270.2l-13.2,35.2h26.5l-13.4-35.2h0ZM753.8,253.5v84.3h-15v-84.3h15Z"/>
      <path class="cls-1" d="M257.3,280.7c2.1-6.2,2.8-12.8,2.1-19.3-.6-6.5-2.8-12.8-6-18.4-4.9-8.5-12.4-15.3-21.4-19.3-9-4-19-5.1-28.6-3-4.3-4.9-9.7-8.8-15.7-11.5-6-2.6-12.4-4-19-4-9.8,0-19.4,3.1-27.4,8.9-7.9,5.8-13.9,13.9-16.9,23.3-6.4,1.3-12.4,4-17.7,7.8-5.3,3.9-9.7,8.8-13,14.5-5,8.5-7,18.4-6,28.2,1,9.8,5.1,19,11.7,26.3-2.1,6.2-2.8,12.8-2.1,19.3.7,6.5,2.8,12.8,6,18.4,4.9,8.5,12.4,15.3,21.4,19.3,9,4,19,5.1,28.6,3,4.3,4.9,9.7,8.8,15.7,11.5,6,2.6,12.4,4,19,4,9.8,0,19.5-3.1,27.4-8.9,7.9-5.8,13.9-13.9,16.9-23.3,6.4-1.3,12.4-4,17.7-7.8,5.3-3.9,9.7-8.8,13-14.5,5-8.5,7-18.4,6-28.2-1-9.8-5.1-19-11.7-26.3ZM188.5,377.5c-9.2,0-16.3-2.8-22.5-8,.3-.2.7-.4,1.1-.6l36.7-21.2c.9-.5,1.7-1.3,2.2-2.2.5-.9.8-2,.8-3v-51.7l15.5,9s.2.1.2.2c0,0,0,.2.1.2v42.8c0,19.4-16.2,34.5-34.1,34.5h0ZM113.9,345.8c-4-7-5.5-15.2-4.1-23.1.3.2.7.5,1.1.6l36.7,21.2c.9.5,2,.8,3,.8s2.1-.3,3-.8l44.8-25.9v18.2c0,0-.1.2-.2.2l-37.1,21.4c-7.9,4.5-17.3,5.8-26.2,3.5-8.9-2.4-16.4-8.2-21-16.1h0ZM104.2,265.7c4-7,10.4-12.4,18-15.1v43.6c0,1,.3,2.1.8,3,.5.9,1.3,1.7,2.2,2.2l44.8,25.9-15.5,9s-.2,0-.2.1h-.3l-37.1-21.4c-7.9-4.6-13.7-12.1-16.1-21-2.4-8.9-1.2-18.3,3.4-26.2h0ZM231.7,295.4l-44.8-25.9,15.5-8.9s.2,0,.2-.1h.3l37.1,21.4c5.7,3.3,10.3,8.1,13.4,13.9,3.1,5.8,4.3,12.4,3.8,18.9-.6,6.6-3,12.8-7,18-4,5.2-9.3,9.2-15.5,11.5v-43.6c0-1-.3-2.1-.8-3-.5-.9-1.3-1.7-2.2-2.2h0ZM247.1,272.1s-.7-.5-1.1-.6l-36.7-21.2c-.9-.5-2-.8-3-.8s-2.1.3-3,.8l-44.8,25.9v-18.2c0,0,.1-.2.2-.2l37.1-21.4c5.7-3.3,12.1-4.9,18.7-4.6,6.6.3,12.9,2.4,18.3,6.2,5.4,3.7,9.6,9,12.1,15,2.5,6,3.3,12.7,2.2,19.2h0ZM150.1,304.1l-15.5-9s-.2-.1-.2-.2c0,0,0-.2-.1-.2v-42.8c0-6.6,1.9-13,5.4-18.5,3.5-5.5,8.5-10,14.5-12.7,5.9-2.8,12.6-3.8,19.1-3,6.5.9,12.7,3.5,17.7,7.7-.3.2-.7.4-1.1.6l-36.7,21.2c-.9.5-1.7,1.3-2.2,2.2-.5.9-.8,2-.8,3v51.7h0ZM158.5,285.9l19.9-11.5,19.9,11.5v23l-19.9,11.5-19.9-11.5v-23Z"/>
    </g>
  </g>
</svg>