<?xml version="1.0" encoding="utf-8"?>
<!-- Generator: Adobe Illustrator 28.5.0, SVG Export Plug-In . SVG Version: 9.03 Build 54727)  -->
<svg version="1.0" id="katman_1" xmlns="http://www.w3.org/2000/svg" xmlns:xlink="http://www.w3.org/1999/xlink" x="0px" y="0px"
	 viewBox="0 0 841.89 595.28" style="enable-background:new 0 0 841.89 595.28;" xml:space="preserve">
<style type="text/css">
	.st0{fill:#323232;}
	.st1{fill:#20C4F4;}
</style>
<path class="st0" d="M90.13,282.95c0-16.44-10.41-26.26-27.85-26.26H42.72v108.28h13.54v-49.5h6.03c17.17,0,27.85-10.08,27.85-26.26
	V282.95z M76.59,288.39c0,7.44-2.68,16.32-15.42,16.32h-4.92v-37.25h4.92c12.74,0,15.42,8.88,15.42,16.32V288.39z"/>
<path class="st0" d="M141.44,291.38h1.47l-1.17-12.41h-1.22c-8.61,0-13.15,4.92-15.11,7.85l-0.38,0.57l-0.63-7.59h-10.81v85.18
	h13.51V308.2C127.1,297.67,132.48,291.38,141.44,291.38z"/>
<path class="st0" d="M206.84,304.9c0-16.9-8.27-26.59-22.67-26.59c-14.31,0-22.51,9.69-22.51,26.59v34.98
	c0,16.9,8.19,26.58,22.51,26.58c14.42,0,22.67-9.69,22.67-26.58V304.9z M193.3,342.85c0,8.53-3.08,12.85-9.15,12.85
	c-5.96,0-8.97-4.32-8.97-12.85v-40.93c0-8.53,3.02-12.85,8.97-12.85c6.07,0,9.15,4.33,9.15,12.85V342.85z"/>
<path class="st0" d="M324.6,366.46c6.61,0,11.54-2.11,14.66-6.3l0.42-0.57l0.04,6.86h11.3l-0.24-86.68h-13.53v66.6
	c-0.43,3.5-2.16,9.32-8.82,9.32c-5.95,0-8.97-4.27-8.97-12.69V279.8h-13.52v63.21C305.95,353.71,309.19,366.46,324.6,366.46z"/>
<path class="st0" d="M524.58,317.65l0.13-0.2L524.58,317.65c-7.32-4.85-13.63-9.04-13.63-17.05c0-7.33,3.21-11.53,8.82-11.53
	c4.19,0,9.03,1.45,9.14,12.78v1.33h13.36v-1.35c-0.09-14.73-8.51-23.53-22.5-23.53c-13.56,0-22.33,8.82-22.33,22.46
	c0,13.08,9.33,19.29,17.57,24.79c7.56,5.04,14.1,9.4,14.1,17.95c0,4.55-1.19,12.19-9.16,12.19c-7.97,0-8.94-7.43-8.97-13.02v-1.33
	h-13.6v1.33c0,14.67,8.63,23.78,22.51,23.78c14.09,0,22.51-8.77,22.51-23.45C542.43,329.48,532.95,323.19,524.58,317.65z"/>
<path class="st0" d="M423.51,341.35h-13.36v1.5c0,11.39-4.89,12.85-9.16,12.85c-5.95,0-8.97-4.32-8.97-12.85v-40.93
	c0-8.53,3.02-12.85,8.97-12.85c4.26,0,9.16,1.46,9.16,12.85v1.89h12.03l1.32-0.43v-0.97c0-15.32-8.19-24.11-22.51-24.11
	s-22.51,9.71-22.51,26.61v34.98c0,16.9,8.19,26.58,22.51,26.58c14.18,0,22.39-8.66,22.51-23.77L423.51,341.35z"/>
<path class="st0" d="M478.01,352.14l-2.1,1.44c-1.81,1.33-4,2.01-6.24,1.95c-4.36,0-6.39-2.2-6.39-6.93v-58.06h15.47V279.8h-15.48
	v-17.16h-13.54v17.16h-8.28v10.76h8.28v58.56c0,11.51,5.67,17.34,16.8,17.34c3.59,0.07,7.17-0.46,10.59-1.56l0.89-0.31V352.14z"/>
<path class="st0" d="M232.51,343.67c0,14.7,6.56,22.79,18.46,22.79c6.89,0,12-2.2,15.17-6.54l0.43-0.58v7.12h11.08l0.07-113.07
	h-13.54v29.53l-0.4-0.38c-3.01-2.85-7.2-4.24-12.81-4.24c-6.9,0-18.46,2.96-18.46,22.79L232.51,343.67z M246.05,301.6
	c0-8.31,3.02-12.53,8.97-12.53c7.97,0,9.16,7.85,9.16,12.53v41.91c0,2.86-0.66,12.19-9.16,12.19c-5.95,0-8.97-4.21-8.97-12.52V301.6
	z"/>
<rect x="605.44" y="279.61" class="st1" width="27.18" height="85.6"/>
<polygon class="st1" points="655.14,279.61 655.14,392.32 682.32,392.32 682.29,279.61 "/>
<path class="st1" d="M720.64,295.84L720.64,295.84c-0.63-3.13-1.84-6.12-3.56-8.82c-1.7-2.66-4.01-4.86-6.74-6.44
	c-2.78-1.61-6.2-2.42-10.18-2.42c-3.67,0.01-7.3,0.73-10.71,2.11l-0.23,0.09v14.52c1.04-0.01,2.05,0.36,2.84,1.05
	c0.88,0.86,1.5,1.95,1.78,3.15c0.41,1.65,0.61,3.34,0.59,5.04v34.53c0.02,1.89-0.18,3.78-0.59,5.63c-0.27,1.35-0.88,2.6-1.78,3.64
	c-0.76,0.73-1.78,1.13-2.84,1.11v15.37c3.18,1.45,6.63,2.21,10.13,2.22c5.11,0,9.38-1.31,12.67-3.9c3.36-2.71,5.88-6.32,7.27-10.4
	c1.61-4.72,2.4-9.68,2.32-14.66v-32.24C721.61,302.2,721.29,298.99,720.64,295.84z"/>
<path class="st1" d="M598.63,348.51h-0.06c-1.68,0-2.8-0.38-3.34-1.13c-0.63-0.91-0.98-2.35-0.98-4.29v-63.48h-27.18v66.62
	c-0.03,3.43,0.61,6.83,1.89,10.01c1.22,3.06,3.33,5.69,6.06,7.56c2.75,1.89,6.18,2.84,10.2,2.84c4.21,0.01,8.36-0.89,12.19-2.63
	c0.4-0.18,0.81-0.38,1.26-0.6L598.63,348.51z"/>
<polygon class="st0" points="748.57,202.51 721.58,229.42 767.63,229.42 794.55,202.51 "/>
<polygon class="st1" points="772.42,234.21 772.42,280.28 799.33,253.29 799.33,207.3 "/>
</svg>
